<?xml version="1.0" standalone="no"?>
<!DOCTYPE svg PUBLIC "-//W3C//DTD SVG 20010904//EN"
 "http://www.w3.org/TR/2001/REC-SVG-20010904/DTD/svg10.dtd">
<svg version="1.0" xmlns="http://www.w3.org/2000/svg"
 width="700.000000pt" height="700.000000pt" viewBox="0 0 700.000000 700.000000"
 preserveAspectRatio="xMidYMid meet">
<metadata>
Created by potrace 1.11, written by Peter Selinger 2001-2013
</metadata>
<g transform="translate(0.000000,700.000000) scale(0.100000,-0.100000)"
fill="#000000" stroke="none">
<path d="M4320 5804 c-96 -20 -164 -51 -248 -112 l-76 -54 -130 22 c-159 27
-426 37 -579 21 -817 -83 -1513 -608 -1815 -1367 -22 -55 -48 -125 -56 -155
-16 -53 -19 -56 -79 -86 -82 -40 -157 -101 -211 -170 -249 -316 -146 -780 211
-956 60 -30 63 -33 79 -86 27 -93 93 -251 151 -361 379 -722 1119 -1170 1933
-1170 145 0 335 19 440 43 l55 13 62 -47 c259 -197 594 -180 829 43 142 134
220 364 186 548 l-10 55 62 70 c283 318 461 692 533 1120 28 169 25 525 -5
697 -75 418 -246 773 -528 1093 l-62 70 10 55 c24 131 -17 324 -96 442 -141
214 -411 325 -656 272z m-581 -615 c36 -6 68 -12 73 -15 4 -3 8 -22 8 -42 0
-58 27 -150 67 -232 55 -110 169 -222 283 -277 103 -50 162 -63 283 -63 100 0
181 17 264 55 l53 24 34 -42 c128 -158 241 -361 301 -541 178 -532 86 -1117
-246 -1559 -44 -58 -83 -108 -87 -111 -5 -3 -31 6 -59 19 -80 39 -159 55 -263
55 -183 0 -319 -56 -445 -184 -111 -112 -167 -225 -183 -367 -8 -75 -4 -73
-195 -90 -219 -18 -456 12 -676 87 -456 155 -822 497 -1016 949 -20 48 -35 87
-33 89 227 140 331 301 345 531 13 222 -95 441 -275 555 -56 36 -70 49 -66 65
14 57 161 331 224 415 77 104 221 255 315 330 356 283 850 417 1294 349z"/>
<path d="M3342 4120 c-212 -56 -374 -211 -448 -430 -15 -42 -19 -84 -19 -180
0 -96 4 -138 19 -180 69 -202 203 -341 404 -418 60 -24 81 -26 202 -26 121 0
142 2 202 26 264 101 428 330 428 598 0 409 -393 713 -788 610z"/>
</g>
</svg>
