<svg id="svg" version="1.1" xmlns="http://www.w3.org/2000/svg" xmlns:xlink="http://www.w3.org/1999/xlink" width="400" height="145.94315245478037" viewBox="0, 0, 400,145.94315245478037"><g id="svgg"><path id="path0" d="M67.362 71.098 C 61.452 72.391,58.324 78.938,60.995 84.420 C 64.379 91.368,74.599 91.416,77.876 84.500 C 81.314 77.242,75.155 69.392,67.362 71.098 " stroke="none" fill="#24ace4" fill-rule="evenodd"></path><path id="path1" d="M14.394 21.728 C 9.166 23.435,7.482 29.672,11.190 33.592 C 15.754 38.418,23.908 34.785,23.453 28.128 C 23.156 23.776,18.404 20.419,14.394 21.728 M82.282 44.917 C 80.894 45.298,79.619 46.027,78.552 47.046 C 77.985 47.589,77.456 47.992,77.376 47.943 C 76.119 47.166,67.513 46.806,64.250 47.393 C 58.451 48.438,52.478 51.012,49.057 53.942 C 48.859 54.111,48.371 54.508,47.973 54.824 C 43.102 58.687,37.978 66.989,37.085 72.467 C 36.970 73.173,36.947 73.194,35.609 73.818 C 28.528 77.119,29.261 87.634,36.701 89.505 C 37.394 89.680,37.508 89.774,37.675 90.310 C 42.593 106.091,59.087 116.040,75.342 113.029 L 77.434 112.642 78.516 113.696 C 84.612 119.638,94.868 113.534,92.425 105.417 L 92.183 104.614 93.117 103.682 C 105.692 91.128,105.957 70.526,93.712 57.488 L 92.235 55.917 92.464 55.250 C 92.836 54.166,92.667 51.149,92.169 50.000 C 90.450 46.028,86.196 43.841,82.282 44.917 M137.667 49.513 C 133.344 50.440,128.740 53.474,126.122 57.121 L 125.583 57.871 125.538 54.269 L 125.493 50.667 120.413 50.667 L 115.333 50.667 115.333 80.000 L 115.333 109.333 120.417 109.333 L 125.500 109.333 125.501 93.458 C 125.502 73.164,125.662 70.988,127.476 66.531 C 129.753 60.937,133.487 58.583,140.083 58.583 C 147.767 58.583,151.081 61.707,152.019 69.833 C 152.161 71.068,152.241 77.144,152.287 90.458 L 152.354 109.333 157.344 109.333 L 162.333 109.333 162.328 90.625 C 162.323 71.459,162.265 69.234,161.669 65.547 C 160.274 56.908,155.755 51.521,148.333 49.648 C 146.185 49.106,139.932 49.027,137.667 49.513 M202.667 49.272 C 197.943 50.133,194.982 51.133,191.764 52.954 C 171.551 64.388,170.539 93.138,189.898 105.950 C 199.757 112.475,213.768 112.505,223.667 106.023 C 245.358 91.818,240.930 58.493,216.290 50.506 C 212.938 49.419,205.535 48.749,202.667 49.272 M271.576 49.573 C 268.048 50.485,264.434 52.998,262.250 56.059 C 261.326 57.354,261.333 57.373,261.333 53.833 L 261.333 50.667 256.333 50.667 L 251.333 50.667 251.333 80.000 L 251.333 109.333 256.333 109.333 L 261.333 109.333 261.337 93.792 C 261.342 74.016,261.477 71.360,262.670 67.583 C 264.632 61.368,268.250 58.512,274.173 58.503 C 278.697 58.496,281.476 60.464,283.161 64.868 C 284.584 68.588,284.658 69.898,284.663 91.375 L 284.667 109.333 289.750 109.333 L 294.833 109.333 294.833 92.018 C 294.833 72.425,294.922 70.639,296.074 67.137 C 297.981 61.339,301.147 58.754,306.597 58.546 C 311.728 58.349,314.495 59.762,316.302 63.500 C 318.052 67.119,318.167 68.855,318.167 91.733 L 318.167 109.333 323.167 109.333 L 328.167 109.333 328.167 89.910 C 328.167 77.469,328.104 69.905,327.991 68.868 C 326.519 55.265,320.834 49.236,309.500 49.257 C 301.726 49.272,295.752 52.213,292.513 57.623 L 291.879 58.680 291.182 57.506 C 287.379 51.105,278.907 47.677,271.576 49.573 M11.333 80.000 L 11.333 109.333 16.333 109.333 L 21.333 109.333 21.333 80.000 L 21.333 50.667 16.333 50.667 L 11.333 50.667 11.333 80.000 M337.333 50.752 C 337.333 50.799,337.848 51.830,338.477 53.043 C 339.106 54.257,341.366 58.700,343.499 62.917 C 345.633 67.133,348.296 72.383,349.417 74.583 C 350.539 76.783,353.166 81.958,355.255 86.083 C 357.344 90.208,360.219 95.876,361.643 98.678 L 364.232 103.773 363.880 104.512 C 363.687 104.918,361.377 109.600,358.747 114.917 C 356.117 120.233,352.894 126.758,351.585 129.417 C 350.276 132.075,348.334 135.999,347.269 138.136 C 346.205 140.273,345.333 142.054,345.333 142.094 C 345.333 142.134,347.923 142.167,351.087 142.167 L 356.842 142.167 356.986 141.792 C 357.065 141.585,357.558 140.517,358.082 139.417 C 358.606 138.317,359.242 136.967,359.497 136.417 C 359.751 135.867,368.968 116.386,379.979 93.126 C 390.991 69.866,400.000 50.797,400.000 50.751 C 400.000 50.705,397.430 50.667,394.289 50.667 L 388.578 50.667 386.506 55.292 C 385.366 57.835,384.122 60.592,383.740 61.417 C 383.358 62.242,382.877 63.292,382.671 63.750 C 382.465 64.208,382.108 64.996,381.878 65.500 C 381.648 66.004,381.328 66.717,381.167 67.083 C 381.006 67.450,380.684 68.162,380.451 68.667 C 379.671 70.360,375.909 78.693,372.833 85.542 C 371.155 89.277,369.734 92.333,369.673 92.333 C 369.613 92.333,368.243 89.652,366.629 86.375 C 365.014 83.098,362.028 77.042,359.992 72.917 C 357.957 68.792,354.656 62.098,352.657 58.042 L 349.022 50.667 343.178 50.667 C 339.963 50.667,337.333 50.705,337.333 50.752 M73.791 53.016 C 76.003 53.412,75.921 53.354,76.156 54.672 C 77.071 59.790,82.627 62.770,87.514 60.763 L 88.583 60.324 89.392 61.204 C 99.560 72.271,99.630 88.430,89.556 99.158 L 88.390 100.399 87.541 100.034 C 82.846 98.014,77.161 101.018,76.162 106.046 L 75.947 107.124 74.349 107.437 C 61.587 109.935,47.832 102.034,43.504 89.722 L 43.172 88.777 43.544 88.521 C 48.512 85.092,48.599 77.728,43.708 74.583 C 42.495 73.803,42.496 73.813,43.369 71.250 C 47.594 58.833,61.093 50.743,73.791 53.016 M212.083 59.043 C 233.537 64.785,232.302 97.714,210.500 101.268 C 197.148 103.444,186.110 93.823,186.100 80.000 C 186.093 69.039,193.148 60.344,203.417 58.658 C 205.169 58.370,210.446 58.604,212.083 59.043 " stroke="none" fill="#141414" fill-rule="evenodd"></path></g></svg>