<svg id="svg" version="1.1" xmlns="http://www.w3.org/2000/svg" xmlns:xlink="http://www.w3.org/1999/xlink" width="400" height="357.4066122799485" viewBox="0, 0, 400,357.4066122799485"><g id="svgg"><path id="path0" d="M274.000 0.247 C 266.152 1.387,258.629 4.990,253.229 10.194 C 252.484 10.913,251.818 11.500,251.749 11.500 C 251.577 11.500,245.687 9.851,245.167 9.658 C 243.874 9.177,233.059 6.838,229.083 6.179 C 205.716 2.308,180.230 3.306,157.500 8.981 C 151.348 10.517,140.352 13.988,137.083 15.425 C 136.808 15.546,135.196 16.207,133.500 16.893 C 127.413 19.357,119.763 23.057,114.167 26.243 C 111.839 27.568,109.177 29.136,108.378 29.653 C 107.941 29.935,106.784 30.673,105.807 31.292 C 83.816 45.219,63.520 65.967,50.498 87.833 C 49.925 88.796,49.284 89.846,49.074 90.167 C 48.515 91.021,46.332 95.000,44.640 98.250 C 43.319 100.786,42.740 101.973,40.554 106.632 C 38.381 111.261,35.065 119.908,33.415 125.250 C 32.905 126.900,32.306 128.813,32.083 129.500 C 31.235 132.121,29.125 140.812,28.341 144.917 C 27.672 148.420,27.695 148.333,27.434 148.333 C 26.506 148.333,21.370 150.558,18.667 152.131 C 2.245 161.685,-4.506 182.400,3.026 200.119 C 3.407 201.016,3.845 201.938,3.999 202.167 C 4.153 202.396,4.331 202.727,4.395 202.902 C 4.652 203.611,6.304 206.191,7.605 207.917 C 12.819 214.830,20.286 219.825,28.422 221.840 L 30.583 222.375 31.355 225.229 C 32.740 230.348,36.748 242.284,37.648 243.965 C 37.746 244.148,38.265 245.375,38.801 246.691 C 41.086 252.295,47.143 264.355,49.169 267.333 C 49.325 267.563,49.989 268.650,50.645 269.750 C 53.000 273.698,59.168 282.794,60.213 283.860 C 60.333 283.983,60.873 284.683,61.412 285.417 C 61.951 286.150,62.672 287.087,63.014 287.500 C 69.473 295.290,70.972 296.965,76.000 302.006 C 80.049 306.066,81.093 307.063,83.500 309.169 C 84.279 309.851,84.992 310.492,85.083 310.592 C 85.175 310.693,86.337 311.676,87.667 312.778 C 95.698 319.431,102.630 324.309,111.833 329.781 C 115.550 331.990,123.461 336.102,127.167 337.749 C 128.129 338.177,129.142 338.640,129.417 338.777 C 129.692 338.915,131.304 339.589,133.000 340.275 C 134.696 340.961,136.308 341.623,136.583 341.745 C 136.858 341.867,138.171 342.354,139.500 342.827 C 140.829 343.300,142.554 343.921,143.333 344.207 C 147.524 345.743,155.220 347.902,161.333 349.256 C 163.212 349.672,165.200 350.119,165.750 350.248 C 168.629 350.927,177.569 352.214,183.167 352.755 C 188.249 353.247,189.396 353.321,194.708 353.503 C 200.000 353.685,208.145 353.532,212.333 353.172 C 220.919 352.434,230.117 351.193,234.667 350.157 C 235.446 349.980,237.621 349.497,239.500 349.083 C 242.994 348.315,244.435 347.940,249.052 346.599 C 250.501 346.178,251.716 345.833,251.752 345.833 C 251.788 345.833,252.364 346.365,253.033 347.015 C 254.990 348.915,258.346 351.414,260.167 352.329 C 260.579 352.536,261.039 352.812,261.188 352.943 C 262.101 353.744,268.520 356.084,271.337 356.644 C 279.947 358.352,290.093 356.963,296.975 353.134 C 312.341 344.585,320.128 328.057,316.562 311.561 L 316.113 309.482 316.765 308.951 C 318.049 307.904,319.815 306.210,324.000 302.008 C 327.845 298.147,329.094 296.806,332.925 292.426 C 345.651 277.876,358.422 256.060,364.272 238.880 C 364.515 238.167,364.768 237.508,364.835 237.417 C 365.096 237.056,367.894 228.195,368.677 225.250 C 370.443 218.602,371.422 214.160,372.329 208.667 C 372.700 206.421,373.078 204.208,373.169 203.750 C 375.306 193.021,375.396 168.371,373.349 154.833 C 371.865 145.021,369.623 134.703,367.609 128.417 C 367.286 127.408,366.613 125.308,366.112 123.750 C 365.172 120.820,362.723 114.089,362.171 112.917 C 361.999 112.550,361.469 111.313,360.995 110.167 C 356.609 99.572,348.192 84.665,341.823 76.214 C 341.324 75.553,340.542 74.508,340.083 73.891 C 338.051 71.158,337.335 70.253,334.441 66.764 C 329.057 60.274,323.273 54.296,316.360 48.075 C 316.173 47.907,316.198 47.586,316.507 46.145 C 321.091 24.819,307.211 4.287,285.583 0.400 C 283.498 0.025,276.189 -0.071,274.000 0.247 M208.750 29.984 C 219.743 30.753,227.551 31.978,237.685 34.526 L 241.121 35.390 241.218 38.820 C 241.721 56.577,252.221 69.756,270.097 75.070 C 274.736 76.449,283.821 76.460,288.311 75.092 C 288.736 74.963,289.646 74.698,290.333 74.503 C 293.550 73.594,300.510 70.254,300.806 69.479 C 300.874 69.299,301.285 69.286,301.361 69.462 C 301.392 69.533,302.392 70.529,303.583 71.677 C 307.919 75.852,312.364 80.675,315.380 84.478 C 316.001 85.262,316.566 85.944,316.636 85.993 C 316.761 86.083,320.560 91.154,322.020 93.181 C 326.376 99.226,331.984 108.981,335.331 116.333 C 335.811 117.388,336.411 118.700,336.663 119.250 C 336.916 119.800,337.553 121.337,338.080 122.667 C 338.606 123.996,339.171 125.383,339.336 125.750 C 339.500 126.117,340.158 127.954,340.798 129.833 C 341.439 131.712,342.006 133.362,342.059 133.500 C 343.406 136.983,346.175 148.944,347.249 155.917 C 349.466 170.302,349.585 186.628,347.567 199.417 C 346.199 208.085,345.758 210.275,344.111 216.583 C 342.822 221.521,340.327 229.358,339.335 231.583 C 339.172 231.950,338.644 233.262,338.163 234.500 C 334.651 243.528,327.613 256.466,321.998 264.219 C 320.697 266.015,316.770 271.256,316.667 271.333 C 316.606 271.379,316.075 272.023,315.486 272.764 C 312.460 276.578,308.663 280.729,304.181 285.124 C 302.569 286.704,301.199 287.998,301.137 287.999 C 301.075 287.999,300.552 287.687,299.976 287.304 C 290.273 280.859,277.050 279.432,265.833 283.618 C 263.444 284.510,259.189 286.701,257.919 287.693 C 257.826 287.765,256.991 288.386,256.063 289.073 C 246.933 295.834,241.558 306.498,241.218 318.527 L 241.120 321.972 236.685 323.053 C 230.245 324.622,229.458 324.793,225.764 325.421 C 221.827 326.089,218.334 326.547,214.417 326.907 C 212.858 327.050,210.721 327.261,209.667 327.375 C 207.063 327.658,192.953 327.657,190.333 327.374 C 189.279 327.260,187.142 327.050,185.583 326.907 C 180.180 326.410,173.128 325.364,169.320 324.493 C 165.354 323.586,158.885 321.960,157.791 321.596 C 157.127 321.374,155.121 320.730,153.333 320.164 C 151.546 319.599,149.858 319.035,149.583 318.911 C 149.308 318.787,147.848 318.222,146.339 317.656 C 143.904 316.742,141.846 315.881,137.917 314.133 C 134.540 312.631,127.266 308.786,123.417 306.469 C 121.372 305.237,116.281 301.982,116.167 301.832 C 116.121 301.772,115.483 301.321,114.750 300.829 C 107.813 296.175,98.418 288.077,91.740 280.993 C 80.650 269.230,70.601 254.368,64.585 240.833 C 64.239 240.054,63.694 238.854,63.375 238.167 C 63.055 237.479,62.312 235.679,61.723 234.167 C 61.134 232.654,60.539 231.171,60.399 230.870 C 60.041 230.097,57.749 223.167,56.998 220.587 L 56.369 218.425 57.518 217.754 C 62.762 214.694,67.750 209.720,70.724 204.583 C 71.255 203.667,71.761 202.804,71.848 202.667 C 73.568 199.946,75.548 193.300,75.990 188.763 C 77.522 173.015,68.962 157.478,55.114 150.872 L 53.811 150.250 53.906 149.498 C 54.108 147.897,55.366 142.619,56.645 138.000 C 58.171 132.490,61.567 123.046,63.506 118.917 C 63.765 118.367,64.366 117.054,64.842 116.000 C 65.900 113.657,68.382 108.681,68.904 107.855 C 69.114 107.522,69.827 106.275,70.487 105.083 C 74.329 98.149,82.031 87.123,86.258 82.507 C 86.555 82.182,87.125 81.527,87.524 81.052 C 91.330 76.515,97.979 69.955,104.076 64.722 C 121.119 50.092,144.436 38.426,166.326 33.578 C 168.209 33.161,170.200 32.712,170.750 32.581 C 174.936 31.581,184.649 30.385,191.750 29.994 C 193.583 29.893,195.158 29.779,195.250 29.742 C 195.556 29.615,206.216 29.806,208.750 29.984 " stroke="none" fill="#ffffff" fill-rule="evenodd"></path><path id="path1" d="M195.917 128.861 C 190.396 129.564,188.701 129.878,185.767 130.742 C 171.726 134.877,159.722 145.520,154.167 158.758 C 153.785 159.670,153.338 160.717,153.175 161.083 C 152.215 163.241,151.119 167.721,150.319 172.750 C 149.872 175.561,149.981 183.255,150.504 185.801 C 150.593 186.231,150.849 187.558,151.074 188.750 C 153.528 201.741,162.081 214.089,173.417 221.004 C 176.703 223.009,177.419 223.390,179.735 224.371 C 181.027 224.918,182.308 225.463,182.583 225.583 C 187.647 227.780,198.111 229.180,204.417 228.502 C 208.908 228.020,214.968 226.658,217.417 225.580 C 217.692 225.459,218.854 224.972,220.000 224.499 C 221.146 224.026,222.421 223.449,222.833 223.216 C 223.246 222.984,223.996 222.565,224.500 222.285 C 244.276 211.322,254.057 188.155,248.335 165.833 C 247.872 164.029,247.048 161.445,246.660 160.583 C 246.494 160.217,246.119 159.354,245.824 158.667 C 244.586 155.773,242.264 151.645,240.764 149.673 C 240.379 149.165,239.805 148.406,239.490 147.985 C 229.885 135.159,211.122 126.924,195.917 128.861 " stroke="none" fill="#24ace4" fill-rule="evenodd"></path></g></svg>