<?xml version="1.0" encoding="utf-8"?>
<!-- Generator: Adobe Illustrator 25.0.1, SVG Export Plug-In . SVG Version: 6.00 Build 0)  -->
<svg version="1.1" id="Layer_1" xmlns="http://www.w3.org/2000/svg" xmlns:xlink="http://www.w3.org/1999/xlink" x="0px" y="0px"
	 viewBox="0 0 144 144" style="enable-background:new 0 0 144 144;" xml:space="preserve">
<style type="text/css">
	.st0{display:none;fill:#FFFFFF;}
	.st1{fill:#FFFFFF;}
	.st2{fill:#1D94FF;}
</style>
<circle class="st0" cx="72" cy="72" r="60"/>
<circle class="st1" cx="72" cy="71.8" r="62.1"/>
<circle class="st2" cx="72" cy="71.8" r="13"/>
<circle class="st2" cx="33.3" cy="71.8" r="13"/>
<circle class="st2" cx="91.5" cy="106.3" r="13"/>
<circle class="st2" cx="91.5" cy="37.3" r="13"/>
<path class="st2" d="M116.9,71.8c0,24.7-20.1,44.9-44.9,44.9S27.1,96.6,27.1,71.8C27.1,47,47.2,26.9,72,26.9
	C96.8,26.9,116.9,47.1,116.9,71.8z M37.1,71.8c0,19.3,15.6,34.9,34.9,34.9c19.3,0,34.9-15.6,34.9-34.9c0-19.3-15.6-34.9-34.9-34.9
	C52.7,36.9,37.1,52.5,37.1,71.8z"/>
</svg>
